<?xml version="1.0" encoding="utf-8"?>
<!-- Generator: Adobe Illustrator 26.2.1, SVG Export Plug-In . SVG Version: 6.00 Build 0)  -->
<svg version="1.1" id="Layer_1" xmlns="http://www.w3.org/2000/svg" xmlns:xlink="http://www.w3.org/1999/xlink" x="0px" y="0px"
	 viewBox="0 0 942.5 631.4" style="enable-background:new 0 0 942.5 631.4;" xml:space="preserve">
<style type="text/css">
	.st0{fill:#2F2E41;}
	.st1{fill:#FFB8B8;}
	.st2{fill:#3F3D56;}
	.st3{fill:#23AFEB;}
	.st4{fill:#E6E6E6;}
	.st5{fill:#CCCCCC;}
	.st6{fill:#FFFFFF;}
	.st7{fill:#F2F2F2;}
</style>
<path class="st0" d="M750.9,279.4l2.8-22.4c2.1-16.6,17.2-28.4,33.8-26.3s28.4,17.2,26.3,33.8l-2.8,22.4c-0.3,2.2-2.3,3.8-4.5,3.5
	l-52-6.5C752.2,283.7,750.6,281.7,750.9,279.4z"/>
<circle class="st1" cx="775.8" cy="263.9" r="22.2"/>
<path class="st0" d="M746.3,257.9c1.7-13.1,13.6-22.4,26.7-20.8l4.5,0.6c13.1,1.7,22.4,13.6,20.8,26.7l-0.1,0.4l-9.5-1.2l-2.1-9.5
	l-1.8,9l-4.9-0.6l-1.1-4.8l-0.9,4.5l-31.8-4L746.3,257.9z"/>
<path class="st1" d="M667.2,343.1c2.6,5,8.7,7,13.8,4.5c0.5-0.3,1-0.6,1.5-1l20.2,11.8l10.2-10.5l-28.7-16.3
	c-3.7-4.3-10.2-4.8-14.5-1C666,333.7,665,338.9,667.2,343.1L667.2,343.1z"/>
<path class="st2" d="M733.3,364.4c-14.9,0-41.1-6.7-42.5-7l-0.5-0.1l4.1-20.9l40,7.9l21.7-30.6l24.9-2.5l-0.7,0.9
	c-0.3,0.4-32.5,42.7-37.5,49.8C741.7,363.7,738,364.4,733.3,364.4z"/>
<path class="st2" d="M737.3,442.6l-0.6-0.3c-0.1-0.1-12.8-6.2-19.3-18.2c-6.5-11.9,24-62.6,26.1-66.1l0-16.1l11-29.6l14-7.9l-12,28
	L737.3,442.6z"/>
<polygon class="st1" points="723.3,615.6 709.9,615.6 703.5,564 723.3,564 "/>
<path class="st0" d="M726.7,628.6l-43.1,0V628c0-9.3,7.5-16.8,16.8-16.8h0l26.3,0L726.7,628.6z"/>
<polygon class="st1" points="866.9,603.9 854.2,608 832.1,561 850.8,554.9 "/>
<path class="st0" d="M874.2,615.1l-41,13.4L833,628c-2.9-8.8,1.9-18.3,10.7-21.2l0,0l25-8.2L874.2,615.1z"/>
<path class="st0" d="M841,595.4l-38.1-63.6l-32.2-68l-29,60.1l-11.5,77.8l-40.3,0.6l0.2-0.6l61.7-245.3l48.4,7.2l-2.2,31.9l1.3,1.9
	c10.9,15.5,22.2,31.6,15.7,48.9l18.4,54.5l40.6,90.8L841,595.4z"/>
<path class="st3" d="M754,409.4c-7,0-15-8-10.9-21.7l-0.3-0.2l10-44c-8.7-12.4,2.8-22.7,3.8-23.6l5.5-9.8l24.1-15.3l12.2,101.5
	l-0.2,0.2C789.5,404.9,759.9,409.4,754,409.4z"/>
<path class="st2" d="M803.4,432.3c-1,0-1.9-0.1-2.9-0.3c-0.9-0.2-2.5-1.4-4.8-9.1c-9.3-30.4-20.4-121.9-12.4-130.8l0.2-0.2l13.1,2.2
	c1.1-0.8,6.8-4.8,12.1-4.1c2.2,0.3,4.2,1.5,5.5,3.2l0.1,0.1l4.2,59.6l15.3,70.1l-0.4,0.2C832.7,423.7,813.6,432.3,803.4,432.3z"/>
<path class="st1" d="M794.6,409c5.6-0.2,10.1-4.9,9.9-10.6c0-0.6-0.1-1.2-0.2-1.8l19.2-13.3l-5.2-13.7l-26.9,19.1
	c-5.5,1.5-8.6,7.2-7.1,12.7C785.6,406.1,789.8,409.2,794.6,409L794.6,409z"/>
<path class="st2" d="M817.1,394.1L800,381.5l24.1-32.9L805.6,316l8.3-23.7l0.5,1c0.2,0.5,24.9,47.5,29.3,55.1
	c4.5,7.8-25,43.8-26.2,45.3L817.1,394.1z"/>
<path class="st4" d="M431.5,542l-14.6-6.1l-10-73.2H273.6l-10.9,72.9l-13.1,6.5c-1.5,0.8-2.2,2.6-1.4,4.2c0.5,1.1,1.6,1.7,2.8,1.7
	h179.2c1.7,0,3.1-1.4,3.1-3.1C433.4,543.6,432.6,542.5,431.5,542z"/>
<path class="st5" d="M668.4,472.4H13.5c-7.2,0-12.9-5.8-12.9-13v-92.3h680.7v92.3C681.3,466.6,675.5,472.4,668.4,472.4z"/>
<path class="st2" d="M682,410.7H0V15.6C0,7,7,0,15.6,0h650.7C675,0,682,7,682,15.6V410.7z"/>
<path class="st6" d="M641.3,382.1H40.7c-6.7,0-12-5.4-12.1-12.1V40.7c0-6.7,5.4-12,12.1-12.1h600.5c6.7,0,12,5.4,12.1,12.1V370
	C653.3,376.7,647.9,382.1,641.3,382.1z"/>
<path class="st5" d="M509.4,548.7H172c-0.7,0-1.3-0.5-1.5-1.1c-0.2-0.8,0.3-1.7,1.1-1.9c0.1,0,0.3-0.1,0.4-0.1h337.4
	c0.8,0,1.4,0.5,1.6,1.2c0.2,0.8-0.3,1.6-1.2,1.8C509.6,548.7,509.5,548.7,509.4,548.7z"/>
<rect x="489.9" y="81.9" class="st7" width="145" height="110.8"/>
<rect x="497.1" y="87.4" class="st6" width="130.6" height="99.8"/>
<path class="st2" d="M564.7,161.4C564.7,161.4,564.7,161.4,564.7,161.4c19.3-1,34-17.4,33-36.6c-0.9-17.5-14.7-31.6-32.2-32.9
	c-0.2,0-0.4,0.1-0.6,0.2c-0.2,0.1-0.3,0.4-0.3,0.6l-0.8,67.9C563.9,161,564.2,161.4,564.7,161.4L564.7,161.4z"/>
<path class="st4" d="M537.3,103.2c0.3,0,0.5,0.1,0.7,0.3l23.4,23.9c0.2,0.2,0.3,0.5,0.3,0.7l-0.4,32.5c0,0.3-0.1,0.6-0.3,0.7
	c-0.2,0.2-0.5,0.3-0.8,0.3c-19.3-1.4-33.8-18.3-32.3-37.6c0.6-7.6,3.6-14.8,8.6-20.5C536.8,103.3,537,103.2,537.3,103.2
	C537.3,103.2,537.3,103.2,537.3,103.2z"/>
<path class="st3" d="M561.1,91.6c0.3,0,0.5,0.1,0.7,0.3c0.2,0.2,0.3,0.5,0.3,0.7l-0.3,29.3c0,0.6-0.5,1-1,1c-0.3,0-0.5-0.1-0.7-0.3
	l-20.4-20.9c-0.4-0.4-0.4-1.1,0-1.4c0,0,0,0,0,0C545.6,95.1,553.2,92.1,561.1,91.6C561.1,91.6,561.1,91.6,561.1,91.6z"/>
<path class="st3" d="M550.6,175.5c0,3.5-2.9,6.2-6.3,6.2s-6.2-2.9-6.2-6.3c0-3.5,2.9-6.2,6.3-6.2c0,0,0,0,0,0
	C547.9,169.2,550.6,172,550.6,175.5z"/>
<path class="st2" d="M568.5,175.7c0,3.5-2.9,6.2-6.3,6.2s-6.2-2.9-6.2-6.3c0-3.5,2.9-6.2,6.3-6.2c0,0,0,0,0,0
	C565.7,169.4,568.5,172.2,568.5,175.7z"/>
<path class="st4" d="M586.3,175.9c0,3.5-2.9,6.2-6.3,6.2c-3.5,0-6.2-2.9-6.2-6.3c0-3.5,2.9-6.2,6.3-6.2l0,0
	C583.6,169.6,586.4,172.4,586.3,175.9z"/>
<rect x="488.3" y="210.1" class="st7" width="145" height="110.8"/>
<rect x="495.5" y="215.6" class="st6" width="130.6" height="99.8"/>
<circle class="st2" cx="517.7" cy="243" r="5.4"/>
<path class="st2" d="M604.8,238.8c2,0,3.7,1.6,3.7,3.7s-1.6,3.7-3.7,3.7c0,0,0,0,0,0h-57c-2,0-3.7-1.6-3.7-3.7s1.6-3.7,3.7-3.7
	H604.8 M604.8,237.9h-57c-2.5,0-4.6,2-4.6,4.6s2,4.6,4.6,4.6c0,0,0,0,0,0h57c2.5,0,4.6-2,4.6-4.6S607.3,237.9,604.8,237.9
	C604.8,237.9,604.8,237.9,604.8,237.9z"/>
<path class="st3" d="M582.3,247h-42.9c-2.5,0-4.6-2-4.6-4.6c0-2.5,2-4.6,4.6-4.6c0,0,0,0,0,0h42.9c2.5,0,4.6,2.1,4.6,4.6
	C586.9,245,584.8,247,582.3,247z"/>
<circle class="st2" cx="517.7" cy="265.5" r="5.4"/>
<path class="st2" d="M604.8,261.3c2,0,3.7,1.6,3.7,3.7s-1.6,3.7-3.7,3.7c0,0,0,0,0,0h-57c-2,0-3.7-1.6-3.7-3.7s1.6-3.7,3.7-3.7
	H604.8 M604.8,260.4h-57c-2.5,0-4.6,2-4.6,4.6s2,4.6,4.6,4.6h57c2.5,0,4.6-2,4.6-4.6S607.3,260.4,604.8,260.4z"/>
<path class="st3" d="M598.5,269.5h-59.1c-2.5,0-4.6-2-4.6-4.6c0-2.5,2-4.6,4.6-4.6c0,0,0,0,0,0h59.1c2.5,0,4.6,2.1,4.6,4.6
	C603.1,267.5,601,269.5,598.5,269.5z"/>
<circle class="st2" cx="517.7" cy="288" r="5.4"/>
<path class="st2" d="M604.8,283.8c2,0,3.7,1.6,3.7,3.7s-1.6,3.7-3.7,3.7c0,0,0,0,0,0h-57c-2,0-3.7-1.6-3.7-3.7s1.6-3.7,3.7-3.7
	H604.8 M604.8,282.9h-57c-2.5,0-4.6,2-4.6,4.6s2,4.6,4.6,4.6h57c2.5,0,4.6-2,4.6-4.6S607.3,282.9,604.8,282.9z"/>
<path class="st3" d="M563.4,292.1h-24c-2.5,0-4.6-2-4.6-4.6c0-2.5,2-4.6,4.6-4.6c0,0,0,0,0,0h24c2.5,0,4.6,2.1,4.6,4.6
	C568,290,565.9,292,563.4,292.1z"/>
<rect x="51.2" y="101.5" class="st7" width="405.1" height="207.6"/>
<rect x="64.7" y="111.8" class="st6" width="378.1" height="187"/>
<path class="st2" d="M395.9,270.3H120.3c-0.5,0-0.9-0.4-0.9-0.9V137.3c0-0.5,0.4-0.9,0.9-0.9s0.9,0.4,0.9,0.9c0,0,0,0,0,0v131.2
	h274.8c0.5,0,0.9,0.4,0.9,0.9C396.8,269.9,396.4,270.3,395.9,270.3z"/>
<path class="st3" d="M179.2,260.8h-25.1c-1.4,0-2.6-1.1-2.6-2.6v-34.6c0-1.4,1.1-2.6,2.6-2.6h25.1c1.4,0,2.6,1.1,2.6,2.6v34.6
	C181.7,259.6,180.6,260.8,179.2,260.8z"/>
<path class="st3" d="M224.9,260.8h-25.1c-1.4,0-2.6-1.1-2.6-2.6v-67.3c0-1.4,1.1-2.6,2.6-2.6h25.1c1.4,0,2.6,1.1,2.6,2.6v67.3
	C227.4,259.6,226.3,260.8,224.9,260.8z"/>
<path class="st3" d="M270.6,260.8h-25.1c-1.4,0-2.6-1.1-2.6-2.6v-34.6c0-1.4,1.1-2.6,2.6-2.6h25.1c1.4,0,2.6,1.1,2.6,2.6v34.6
	C273.1,259.6,272,260.8,270.6,260.8z"/>
<path class="st3" d="M316.3,260.8h-25.1c-1.4,0-2.5-1.1-2.6-2.4v-80.5c0-1.4,1.2-2.5,2.6-2.4h25.1c1.4,0,2.5,1.1,2.6,2.4v80.5
	C318.8,259.7,317.7,260.8,316.3,260.8z"/>
<path class="st3" d="M362,260.8H337c-1.4,0-2.6-1.1-2.6-2.6V154.7c0-1.4,1.1-2.6,2.6-2.6H362c1.4,0,2.6,1.1,2.6,2.6v103.6
	C364.6,259.6,363.4,260.8,362,260.8z"/>
<circle class="st2" cx="166.6" cy="205.6" r="5.2"/>
<circle class="st2" cx="212.3" cy="171.9" r="5.2"/>
<circle class="st2" cx="258.1" cy="205.6" r="5.2"/>
<circle class="st2" cx="303.8" cy="155.6" r="5.2"/>
<circle class="st2" cx="349.5" cy="136.6" r="5.2"/>
<polygon class="st2" points="258.2,206.7 212.3,172.4 167.1,206.3 166.1,204.9 212.3,170.3 257.9,204.4 303.3,154.8 303.4,154.8 
	349.2,136.3 349.8,137.9 304.3,156.3 "/>
</svg>
