<?xml version="1.0" encoding="utf-8"?>
<!-- Generator: Adobe Illustrator 26.2.1, SVG Export Plug-In . SVG Version: 6.00 Build 0)  -->
<svg version="1.1" id="Layer_1" xmlns="http://www.w3.org/2000/svg" xmlns:xlink="http://www.w3.org/1999/xlink" x="0px" y="0px"
	 viewBox="0 0 727.9 637.4" style="enable-background:new 0 0 727.9 637.4;" xml:space="preserve">
<style type="text/css">
	.st0{fill:#E6E6E6;}
	.st1{fill:#FFFFFF;}
	.st2{fill:#23AFEB;}
	.st3{fill:#3F3D56;}
	.st4{fill:#FFB7B7;}
	.st5{fill:#2F2E41;}
	.st6{fill:#CBCBCB;}
</style>
<path id="a9fff5a8-4449-4722-8691-2681997674a8-136" class="st0" d="M44,0c-1.5,0-2.7,1.2-2.7,2.7v93c0,1.5,1.2,2.7,2.7,2.7h317.2
	c1.5,0,2.7-1.2,2.7-2.7v-93c0-1.5-1.2-2.7-2.7-2.7L44,0z"/>
<path id="ef08fdaa-4829-440e-93ff-da8e736c3be7-137" class="st1" d="M48.1,91.6h308.9V6.8H48.1L48.1,91.6z"/>
<path id="f7452840-914d-46a1-ae61-ea1c2fc2d2a5-138" class="st2" d="M318.1,74c-2.5,0-4.5,2-4.5,4.5s2,4.5,4.5,4.5l0,0h18.1
	c2.5,0,4.5-2,4.5-4.5s-2-4.5-4.5-4.5H318.1z"/>
<rect id="b2c9f911-15af-4e19-9f72-89a224d6cf2b" x="132.1" y="65.3" class="st0" width="208.6" height="1.2"/>
<circle id="a570d7cb-c53f-47e1-9372-81d6b1f4b9cc" class="st0" cx="88.5" cy="49.2" r="26.3"/>
<path id="a3321d5c-167e-43b0-8c0e-18df1c8c5ae5-139" class="st3" d="M132.4,58.6l-0.7-1l21.7-14.4l14.9,7.1l21.4-13.7l0.3,0.1
	l42.2,18l33.9-16.6L299,51.5l41.3,8.4l0.8,0.9l-41.9-7.9l-33.1-13.4l-33.9,16.6L189.8,38l-21.4,13.7l-14.9-7.1L132.4,58.6z"/>
<path id="f7b9bcea-10c4-4c80-b4a6-3d8e323f573e-140" class="st0" d="M135.9,74.7c-2.1,0-3.8,1.8-3.8,3.9c0,2.1,1.7,3.8,3.8,3.8h40.4
	c2.1,0,3.9-1.7,3.9-3.8c0-2.1-1.7-3.9-3.8-3.9c0,0-0.1,0-0.1,0H135.9z"/>
<path class="st1" d="M99.1,48.9c-0.6-0.6-1.6-0.6-2.2,0l0,0l-6.8,6.8V39c0-0.9-0.7-1.6-1.6-1.6c-0.9,0-1.6,0.7-1.6,1.6v16.7
	l-6.8-6.8c-0.6-0.6-1.6-0.6-2.2,0c-0.6,0.6-0.6,1.6,0,2.2l0,0l9.5,9.5c0.6,0.6,1.6,0.6,2.2,0l9.5-9.5C99.7,50.5,99.7,49.5,99.1,48.9
	z"/>
<path id="f7c5b60e-33a7-4042-9d2c-5c8c9116b84c-141" class="st0" d="M168.8,149c-1.5,0-2.7,1.2-2.7,2.7v93c0,1.5,1.2,2.7,2.7,2.7
	H486c1.5,0,2.7-1.2,2.7-2.7v-93c0-1.5-1.2-2.7-2.7-2.7L168.8,149z"/>
<path id="a8273e4e-93d2-47bb-9b17-df51a96534af-142" class="st1" d="M172.9,240.6h308.9v-84.8H172.9V240.6z"/>
<path id="a87d1795-16f3-4774-9768-c375c1bdbb9e-143" class="st2" d="M442.9,223c-2.5,0-4.5,2-4.5,4.5c0,2.5,2,4.5,4.5,4.5h18.1
	c2.5,0,4.5-2,4.5-4.5c0-2.5-2-4.5-4.5-4.5H442.9z"/>
<rect id="b60d1a48-178f-4eb5-a9a3-9e4316169c72" x="256.9" y="214.2" class="st0" width="208.6" height="1.2"/>
<circle id="f066d7d6-19fd-468d-830f-1318b53822b2" class="st2" cx="213.3" cy="198.2" r="26.3"/>
<path id="fcead4ff-5625-4c61-90c0-6a9c2def1900-144" class="st3" d="M257.2,207.6l-0.7-1l21.7-14.5l14.9,7.1l21.4-13.7l0.3,0.1
	l42.2,18l33.9-16.6l32.9,13.3l41.3-36.6l0.8,0.9L424,201.9l-33.1-13.4L357,205.1L314.6,187l-21.4,13.7l-14.8-7.1L257.2,207.6z"/>
<path id="b25442e4-8332-4a87-9c30-01930e0b437c-145" class="st0" d="M260.7,223.6c-2.1,0-3.9,1.7-3.9,3.8c0,2.1,1.7,3.9,3.8,3.9l0,0
	l0,0c0,0,0.1,0,0.1,0h40.4c2.1,0,3.8-1.8,3.8-3.9c0-2.1-1.7-3.8-3.8-3.8H260.7z"/>
<path class="st1" d="M202.7,198.5c0.6,0.6,1.6,0.6,2.2,0c0,0,0,0,0,0l0,0l6.8-6.8v16.7c0,0.9,0.7,1.6,1.6,1.6s1.6-0.7,1.6-1.6v-16.7
	l6.8,6.8c0.6,0.6,1.6,0.6,2.2,0s0.6-1.6,0-2.2l0,0l-9.5-9.5c-0.6-0.6-1.6-0.6-2.2,0l-9.5,9.5C202.1,196.9,202.1,197.9,202.7,198.5
	L202.7,198.5z"/>
<path id="f3e6157c-e0fb-4525-9ebd-9efe95b1618f-146" class="st0" d="M2.7,297.9c-1.5,0-2.7,1.2-2.7,2.7v93c0,1.5,1.2,2.7,2.7,2.7
	h317.2c1.5,0,2.7-1.2,2.7-2.7v-93c0-1.5-1.2-2.7-2.7-2.7H2.7z"/>
<path id="b96defd0-9a2c-4c45-aa8c-b5fd1840c319-147" class="st1" d="M6.8,389.6h308.9v-84.8H6.8L6.8,389.6z"/>
<path id="a2204f79-048d-45a5-9dbf-3ca685e385ac-148" class="st2" d="M276.8,372c-2.5,0-4.5,2-4.5,4.5s2,4.5,4.5,4.5h18.1
	c2.5,0,4.5-2,4.5-4.5s-2-4.5-4.5-4.5H276.8z"/>
<rect id="ece8f467-8c57-41a5-b787-946f11f73852" x="90.8" y="363.2" class="st0" width="208.6" height="1.2"/>
<circle id="acd23665-8915-4d62-9edc-4433a6bf124b" class="st2" cx="47.2" cy="347.2" r="26.3"/>
<path id="b2ebcab4-d8cf-428d-87b9-c73daac40ac9-149" class="st3" d="M91.1,356.6l-0.7-1l21.7-14.5l14.9,7.1l21.4-13.7l42.5,18.1
	l33.9-16.6l32.9,13.3l41.3-16.6l0.8,0.9l-41.9,17.1l-33.1-13.4l-33.9,16.6l-42.5-18.1l-21.4,13.7l-14.9-7.1L91.1,356.6z"/>
<path id="aca123b7-0fc2-4f3d-89c1-779a89955e8d-150" class="st0" d="M94.6,372.6c-2.1,0-3.8,1.8-3.8,3.9c0,2.1,1.7,3.8,3.8,3.8h40.4
	c2.1,0,3.9-1.7,3.9-3.8c0-2.1-1.7-3.9-3.8-3.9c0,0-0.1,0-0.1,0H94.6z"/>
<path class="st1" d="M36.6,347.5c0.6,0.6,1.6,0.6,2.2,0l0,0l0,0l6.8-6.8v16.7c0,0.9,0.7,1.6,1.6,1.6c0.9,0,1.6-0.7,1.6-1.6v-16.7
	l6.8,6.8c0.6,0.6,1.6,0.6,2.2,0s0.6-1.6,0-2.2l0,0l0,0l-9.5-9.5c-0.6-0.6-1.6-0.6-2.2,0l-9.5,9.5C36,345.9,36,346.9,36.6,347.5
	C36.6,347.5,36.6,347.5,36.6,347.5z"/>
<polygon class="st4" points="650.4,622 635.2,622 627.9,563.2 650.4,563.2 "/>
<path class="st5" d="M654.3,636.7l-49.1,0v-0.6c0-10.6,8.6-19.1,19.1-19.1h0l30,0L654.3,636.7z"/>
<polygon class="st4" points="594.5,622 579.3,622 572.1,563.2 594.5,563.2 "/>
<path class="st5" d="M598.4,636.7l-49.1,0v-0.6c0-10.6,8.6-19.1,19.1-19.1h0l30,0L598.4,636.7z"/>
<path class="st4" d="M565.8,431.4c5-4.1,5.7-11.4,1.7-16.4c-0.4-0.5-0.9-1-1.4-1.5l8.3-25.3l-14.1-8.8L549,415.4
	c-3.9,5.2-2.8,12.5,2.3,16.4C555.7,435,561.7,434.9,565.8,431.4z"/>
<path class="st5" d="M580.9,414.7c0,0-14.2,76.9-14,91.9c0.2,18,8.2,95.3,8.2,95.3l20.4-5.1l3.9-89.5l16.1-57.1l6.2,73.3l6.2,77.1
	h23.7l5.3-193.4l-77.3-2.6L580.9,414.7z"/>
<path class="st6" d="M651.7,259.7l-40.8,1.3l-25.5,158.2c0,0,54.2,24.9,77.2,7C685.5,408.4,651.7,259.7,651.7,259.7z"/>
<path class="st5" d="M616.6,293.5l-34.5,197.8l-21.7-6.4l15.3-71.5l7.7-71.5l-1.3-71.5l26.8-11.5l7.7-8.9
	C616.6,250.1,632,269.3,616.6,293.5z"/>
<path class="st5" d="M634.5,288.7l2.6,207.7l52.3-8.9l-3.8-192.7l5.1-26.8l-25.5-11.5l-10.3-6.4C654.8,250.1,632,257.1,634.5,288.7z
	"/>
<polygon class="st5" points="593.7,274.4 582.2,270.6 565.6,344.6 551.6,403.3 572,407.1 591.1,343.3 "/>
<path class="st4" d="M708.7,443.9c-5-4.1-5.7-11.4-1.7-16.4c0.4-0.5,0.9-1,1.4-1.5l-8.3-25.3l14.1-8.8l11.2,35.9
	c3.9,5.2,2.8,12.5-2.3,16.4C718.9,447.5,712.9,447.3,708.7,443.9L708.7,443.9z"/>
<polygon class="st5" points="679.6,271.9 691.1,268.1 707.7,342.1 723,415.7 700,419.1 682.2,340.8 "/>
<circle class="st4" cx="634.1" cy="214.8" r="28.4"/>
<path class="st5" d="M624.2,177.7c27.1-7.8,34.8,14.7,34.8,14.7c13.1,8.7,4.9,19.5,4.9,19.5c3.3,0.7-3.3,20-5.5,19.5
	c-1.2-0.3-4.2,3.3-6.7,6.8c-0.9,0-1.8,0.1-2.6,0.3l5-18.4c0,0-16.7-2.6-21.9-10.6c-4.9-7.7-21.1-10.1-25.7-5
	c-0.3-1.5-0.8-2.9-1.6-4.2c-0.6-1-1.4-1.8-2.4-2.4C606.5,180.6,624.2,177.7,624.2,177.7z"/>
</svg>
